<svg id="svg" version="1.1" xmlns="http://www.w3.org/2000/svg" xmlns:xlink="http://www.w3.org/1999/xlink" width="400" height="400" viewBox="0, 0, 400,400"><g id="svgg"><path id="path0" d="M175.403 26.858 C 64.328 41.098,-5.410 163.782,38.793 267.187 C 93.609 395.421,266.362 412.585,344.525 297.563 C 429.244 172.895,325.950 7.558,175.403 26.858 M232.000 50.542 C 323.503 71.147,375.805 165.879,343.419 252.348 C 339.691 262.302,331.021 280.066,328.794 282.315 C 328.622 282.488,325.997 278.888,322.960 274.315 C 308.140 252.001,276.323 227.412,252.667 219.990 C 249.733 219.069,246.992 218.127,246.574 217.895 C 246.157 217.664,249.592 213.527,254.208 208.702 C 287.937 173.446,277.293 115.129,233.333 94.337 C 160.518 59.897,94.020 149.435,148.365 208.744 L 156.275 217.376 151.804 218.926 C 125.844 227.922,95.477 251.297,79.821 274.333 C 71.966 285.893,73.223 285.695,67.498 276.271 C 0.172 165.441,104.783 21.894,232.000 50.542 " stroke="none" fill="#000000" fill-rule="evenodd"></path></g></svg>